<svg width="1600" height="1200" viewBox="0 0 1600 1200" fill="none" xmlns="http://www.w3.org/2000/svg">
<path d="M37.6023 891.393C-60.4257 1028.23 56.1682 1124.38 126.719 1155.35C434.17 1155.35 1115.91 1163.79 1383.26 1155.35C1717.45 1144.79 1619.42 703.458 1396.63 642.221C1173.84 580.984 1357.58 342.03 1219.05 257.578C777.492 -11.611 703.747 473.291 242.57 437.393C31.8041 420.987 160.137 720.351 37.6023 891.393Z" fill="#FFF4E4"/>
<rect width="1115.15" height="829.739" rx="60" fill="#FFEACB"/>
<path d="M0 60C0 26.8629 26.8629 0 60 0H1055.15C1088.29 0 1115.15 26.8629 1115.15 60V99.2309H0V60Z" fill="#FED085"/>
<ellipse cx="90.0433" cy="51.7267" rx="16.1616" ry="14.7791" fill="white"/>
<ellipse cx="90.0433" cy="51.7267" rx="16.1616" ry="14.7791" fill="white"/>
<ellipse cx="144.3" cy="51.7267" rx="16.1616" ry="14.7791" fill="white"/>
<ellipse cx="144.3" cy="51.7267" rx="16.1616" ry="14.7791" fill="white"/>
<ellipse cx="198.557" cy="51.7267" rx="16.1616" ry="14.7791" fill="white"/>
<ellipse cx="198.557" cy="51.7267" rx="16.1616" ry="14.7791" fill="white"/>
<rect x="492.929" y="144.624" width="569.12" height="449.706" rx="40" fill="#FFE2B7"/>
<rect x="663.781" y="192.128" width="169.697" height="10.5565" rx="5.27823" fill="#FDD79F"/>
<rect x="661.472" y="221.686" width="83.1169" height="10.5565" rx="5.27825" fill="#FDD79F"/>
<rect x="661.472" y="251.244" width="292.064" height="10.5565" rx="5.27825" fill="#FDD79F"/>
<rect x="655.7" y="307.193" width="76.1905" height="10.5565" rx="5.27825" fill="#FDD79F"/>
<rect x="653.391" y="336.752" width="292.064" height="10.5565" rx="5.27827" fill="#FDD79F"/>
<rect x="653.391" y="366.31" width="292.064" height="10.5565" rx="5.27825" fill="#FDD79F"/>
<rect x="643.001" y="446.539" width="289.755" height="10.5565" rx="5.27825" fill="#FDD79F"/>
<rect x="640.693" y="476.097" width="292.063" height="10.5565" rx="5.27825" fill="#FDD79F"/>
<rect x="640.693" y="505.655" width="292.063" height="10.5565" rx="5.27823" fill="#FDD79F"/>
<ellipse cx="570.094" cy="481.903" rx="38.6724" ry="35.3642" fill="white"/>
<ellipse cx="570.094" cy="230.659" rx="38.6724" ry="35.3642" fill="#EE6754"/>
<path fill-rule="evenodd" clip-rule="evenodd" d="M568.979 241.871C567.799 243.108 565.887 243.108 564.707 241.871L554.24 230.835C553.061 229.598 553.061 227.593 554.24 226.356C555.42 225.119 557.333 225.119 558.512 226.356L566.843 235.153L582.831 218.391C584.011 217.154 585.923 217.154 587.103 218.391C588.283 219.628 588.283 221.633 587.103 222.87L568.979 241.871Z" fill="white"/>
<path fill-rule="evenodd" clip-rule="evenodd" d="M568.979 493.116C567.799 494.352 565.887 494.352 564.707 493.116L554.24 482.079C553.061 480.842 553.061 478.837 554.24 477.6C555.42 476.364 557.333 476.364 558.512 477.6L566.843 486.397L582.831 469.635C584.011 468.398 585.923 468.398 587.103 469.635C588.283 470.872 588.283 472.877 587.103 474.114L568.979 493.116Z" fill="#EE6754"/>
<rect x="53.1024" y="156.236" width="393.651" height="405.369" rx="50" fill="#FFE2B7"/>
<path d="M53.1024 206.236C53.1024 178.622 75.4882 156.236 103.102 156.236H396.753C424.367 156.236 446.753 178.622 446.753 206.236V221.686H53.1024V206.236Z" fill="#FFBF56"/>
<path d="M172.352 180.419V183.231H159.76V192.162H169.984V194.974H159.76V206.907H155.978V180.419H172.352Z" fill="white"/>
<path d="M180.702 183.231V192.086H191.258V194.936H180.702V204.057H192.504V206.907H176.92V180.381H192.504V183.231H180.702Z" fill="white"/>
<path d="M212.731 193.264C213.784 193.416 214.739 193.808 215.598 194.442C216.485 195.075 217.177 195.861 217.676 196.798C218.203 197.736 218.466 198.736 218.466 199.8C218.466 201.143 218.092 202.359 217.344 203.449C216.596 204.513 215.501 205.362 214.061 205.995C212.648 206.603 210.971 206.907 209.032 206.907H198.227V180.419H208.616C210.584 180.419 212.26 180.723 213.645 181.331C215.03 181.913 216.069 182.712 216.762 183.725C217.454 184.738 217.801 185.878 217.801 187.145C217.801 188.716 217.33 190.021 216.388 191.06C215.474 192.073 214.254 192.808 212.731 193.264ZM202.009 191.858H208.367C210.14 191.858 211.512 191.478 212.481 190.718C213.451 189.957 213.936 188.906 213.936 187.563C213.936 186.22 213.451 185.169 212.481 184.409C211.512 183.649 210.113 183.269 208.284 183.269H202.009V191.858ZM208.7 204.057C210.584 204.057 212.052 203.651 213.105 202.841C214.158 202.03 214.684 200.902 214.684 199.458C214.684 197.989 214.13 196.836 213.022 196C211.913 195.139 210.431 194.708 208.575 194.708H202.009V204.057H208.7Z" fill="white"/>
<path d="M238.966 206.907L232.067 196.076H227.496V206.907H223.714V180.419H233.064C235.253 180.419 237.096 180.761 238.592 181.445C240.116 182.129 241.251 183.054 242 184.219C242.748 185.384 243.122 186.715 243.122 188.209C243.122 190.033 242.54 191.642 241.376 193.036C240.24 194.429 238.522 195.354 236.223 195.81L243.496 206.907H238.966ZM227.496 193.302H233.064C235.115 193.302 236.652 192.846 237.677 191.934C238.703 190.996 239.215 189.755 239.215 188.209C239.215 186.639 238.703 185.422 237.677 184.561C236.68 183.7 235.142 183.269 233.064 183.269H227.496V193.302Z" fill="white"/>
<path d="M252.697 180.419V197.178C252.697 199.534 253.32 201.282 254.567 202.423C255.841 203.563 257.6 204.133 259.845 204.133C262.061 204.133 263.793 203.563 265.039 202.423C266.314 201.282 266.951 199.534 266.951 197.178V180.419H270.733V197.14C270.733 199.344 270.248 201.206 269.278 202.727C268.309 204.221 266.993 205.336 265.33 206.071C263.696 206.806 261.853 207.173 259.803 207.173C257.753 207.173 255.897 206.806 254.234 206.071C252.6 205.336 251.297 204.221 250.328 202.727C249.386 201.206 248.915 199.344 248.915 197.14V180.419H252.697Z" fill="white"/>
<path d="M294.164 201.016H281.53L279.203 206.907H275.213L285.686 180.571H290.05L300.481 206.907H296.491L294.164 201.016ZM293.083 198.204L287.847 184.827L282.611 198.204H293.083Z" fill="white"/>
<path d="M320.297 206.907L313.398 196.076H308.827V206.907H305.045V180.419H314.396C316.584 180.419 318.427 180.761 319.923 181.445C321.447 182.129 322.583 183.054 323.331 184.219C324.079 185.384 324.453 186.715 324.453 188.209C324.453 190.033 323.871 191.642 322.707 193.036C321.571 194.429 319.854 195.354 317.554 195.81L324.827 206.907H320.297ZM308.827 193.302H314.396C316.446 193.302 317.983 192.846 319.009 191.934C320.034 190.996 320.546 189.755 320.546 188.209C320.546 186.639 320.034 185.422 319.009 184.561C318.011 183.7 316.474 183.269 314.396 183.269H308.827V193.302Z" fill="white"/>
<path d="M350.61 180.419L341.176 196.912V206.907H337.394V196.912L327.919 180.419H332.116L339.264 193.834L346.412 180.419H350.61Z" fill="white"/>
<rect x="71.9703" y="255.467" width="70.4185" height="48.5598" rx="8" fill="#FFEACB"/>
<rect x="163.168" y="255.467" width="71.5729" height="48.5598" rx="8" fill="#EE6754"/>
<rect x="255.52" y="255.467" width="70.4185" height="48.5598" rx="8" fill="#FFEACB"/>
<rect x="346.718" y="255.467" width="70.4185" height="48.5598" rx="8" fill="#FFEACB"/>
<rect x="71.9703" y="324.084" width="70.4185" height="48.5598" rx="8" fill="#FFEACB"/>
<rect x="163.168" y="324.084" width="71.5729" height="48.5598" rx="8" fill="#FFEACB"/>
<rect x="255.52" y="324.084" width="70.4185" height="48.5598" rx="8" fill="#FFEACB"/>
<rect x="346.718" y="324.084" width="70.4185" height="48.5598" rx="8" fill="#FFEACB"/>
<rect x="71.9703" y="392.701" width="70.4185" height="48.5598" rx="8" fill="#FFEACB"/>
<rect x="163.168" y="392.701" width="71.5729" height="48.5598" rx="8" fill="#FFEACB"/>
<rect x="255.52" y="392.701" width="70.4185" height="48.5598" rx="8" fill="#FFEACB"/>
<rect x="346.718" y="392.701" width="70.4185" height="48.5598" rx="8" fill="#EE6754"/>
<rect x="71.9703" y="461.318" width="70.4185" height="48.5598" rx="8" fill="#FFEACB"/>
<rect x="163.168" y="461.318" width="71.5729" height="48.5598" rx="8" fill="#FFEACB"/>
<rect x="255.52" y="461.318" width="70.4185" height="48.5598" rx="8" fill="#EE6754"/>
<rect x="346.718" y="461.318" width="70.4185" height="48.5598" rx="8" fill="#FFEACB"/>
<rect x="525.253" y="633.388" width="317.46" height="140.401" rx="40" fill="#FFE2B7"/>
<rect x="543.723" y="331.473" width="28.8601" height="45.3929" fill="#7DB5C4"/>
<rect x="543.723" y="331.473" width="28.8601" height="45.3929" fill="#7DB5C4"/>
<rect x="566.811" y="305.082" width="28.86" height="71.784" fill="#7DB5C4"/>
<rect x="566.811" y="305.082" width="28.86" height="71.784" fill="#FF546C"/>
<rect x="595.671" y="323.028" width="26.5512" height="53.838" fill="#7DB5C4"/>
<rect x="595.671" y="323.028" width="26.5512" height="53.838" fill="#FFFFFD"/>
<path d="M314.395 697.255C314.395 747.686 269.688 788.569 214.539 788.569C159.39 788.569 114.683 747.686 114.683 697.255C114.683 646.824 159.39 605.942 214.539 605.942C269.688 605.942 314.395 646.824 314.395 697.255ZM152.587 697.255C152.587 728.543 180.324 753.907 214.539 753.907C248.754 753.907 276.491 728.543 276.491 697.255C276.491 665.967 248.754 640.603 214.539 640.603C180.324 640.603 152.587 665.967 152.587 697.255Z" fill="#FDD79F"/>
<path d="M314.395 697.255C314.395 747.686 269.688 788.569 214.539 788.569C159.39 788.569 114.683 747.686 114.683 697.255C114.683 646.824 159.39 605.942 214.539 605.942C269.688 605.942 314.395 646.824 314.395 697.255ZM152.587 697.255C152.587 728.543 180.324 753.907 214.539 753.907C248.754 753.907 276.491 728.543 276.491 697.255C276.491 665.967 248.754 640.603 214.539 640.603C180.324 640.603 152.587 665.967 152.587 697.255Z" fill="#FDD79F"/>
<path d="M314.395 697.255C314.395 679.947 309.015 662.996 298.884 648.376C288.752 633.757 274.286 622.071 257.17 614.682C240.055 607.293 220.995 604.504 202.213 606.64C183.43 608.777 165.699 615.75 151.085 626.749C136.47 637.748 125.575 652.318 119.669 668.762C113.763 685.205 113.089 702.846 117.726 719.626C122.363 736.407 132.12 751.637 145.859 763.541C159.599 775.445 176.755 783.533 195.329 786.863L202.621 752.849C191.097 750.783 180.453 745.765 171.929 738.38C163.405 730.994 157.352 721.545 154.475 711.134C151.598 700.724 152.016 689.779 155.681 679.577C159.345 669.376 166.104 660.336 175.171 653.512C184.238 646.689 195.239 642.362 206.892 641.037C218.544 639.711 230.369 641.441 240.988 646.026C251.607 650.61 260.582 657.86 266.868 666.93C273.153 676 276.491 686.517 276.491 697.255H314.395Z" fill="#FDD79F"/>
<path d="M314.395 697.255C314.395 679.947 309.015 662.996 298.884 648.376C288.752 633.757 274.286 622.071 257.17 614.682C240.055 607.293 220.995 604.504 202.213 606.64C183.43 608.777 165.699 615.75 151.085 626.749C136.47 637.748 125.575 652.318 119.669 668.762C113.763 685.205 113.089 702.846 117.726 719.626C122.363 736.407 132.12 751.637 145.859 763.541C159.599 775.445 176.755 783.533 195.329 786.863L202.621 752.849C191.097 750.783 180.453 745.765 171.929 738.38C163.405 730.994 157.352 721.545 154.475 711.134C151.598 700.724 152.016 689.779 155.681 679.577C159.345 669.376 166.104 660.336 175.171 653.512C184.238 646.689 195.239 642.362 206.892 641.037C218.544 639.711 230.369 641.441 240.988 646.026C251.607 650.61 260.582 657.86 266.868 666.93C273.153 676 276.491 686.517 276.491 697.255H314.395Z" fill="#EE6754"/>
<path d="M314.395 697.255C314.395 684.019 311.248 670.941 305.173 658.928C299.097 646.914 290.238 636.252 279.21 627.68C268.181 619.107 255.247 612.83 241.302 609.283C227.357 605.735 212.736 605.002 198.451 607.135C184.166 609.267 170.558 614.214 158.571 621.633C146.584 629.051 136.504 638.764 129.029 650.099C121.554 661.433 116.863 674.118 115.281 687.275C113.699 700.431 115.264 713.745 119.867 726.294L155.803 715.271C152.948 707.486 151.977 699.226 152.958 691.063C153.94 682.901 156.85 675.031 161.488 667.999C166.125 660.967 172.379 654.941 179.816 650.338C187.253 645.735 195.695 642.666 204.558 641.343C213.42 640.02 222.492 640.475 231.143 642.676C239.795 644.877 247.819 648.771 254.662 654.09C261.504 659.408 267 666.023 270.769 673.476C274.538 680.93 276.491 689.043 276.491 697.255H314.395Z" fill="#FDD79F"/>
<path d="M314.395 697.255C314.395 684.019 311.248 670.941 305.173 658.928C299.097 646.914 290.238 636.252 279.21 627.68C268.181 619.107 255.247 612.83 241.302 609.283C227.357 605.735 212.736 605.002 198.451 607.135C184.166 609.267 170.558 614.214 158.571 621.633C146.584 629.051 136.504 638.764 129.029 650.099C121.554 661.433 116.863 674.118 115.281 687.275C113.699 700.431 115.264 713.745 119.867 726.294L155.803 715.271C152.948 707.486 151.977 699.226 152.958 691.063C153.94 682.901 156.85 675.031 161.488 667.999C166.125 660.967 172.379 654.941 179.816 650.338C187.253 645.735 195.695 642.666 204.558 641.343C213.42 640.02 222.492 640.475 231.143 642.676C239.795 644.877 247.819 648.771 254.662 654.09C261.504 659.408 267 666.023 270.769 673.476C274.538 680.93 276.491 689.043 276.491 697.255H314.395Z" fill="#7DB5C4"/>
<path d="M314.395 697.255C314.395 682.7 310.59 668.355 303.297 655.418C296.004 642.48 285.435 631.324 272.471 622.88C259.506 614.435 244.522 608.948 228.768 606.873C213.013 604.799 196.945 606.199 181.902 610.957L194.29 643.715C203.623 640.763 213.592 639.895 223.366 641.181C233.141 642.468 242.437 645.873 250.48 651.112C258.524 656.351 265.081 663.272 269.605 671.299C274.13 679.325 276.491 688.225 276.491 697.255H314.395Z" fill="#FDD79F"/>
<path d="M314.395 697.255C314.395 682.7 310.59 668.355 303.297 655.418C296.004 642.48 285.435 631.324 272.471 622.88C259.506 614.435 244.522 608.948 228.768 606.873C213.013 604.799 196.945 606.199 181.902 610.957L194.29 643.715C203.623 640.763 213.592 639.895 223.366 641.181C233.141 642.468 242.437 645.873 250.48 651.112C258.524 656.351 265.081 663.272 269.605 671.299C274.13 679.325 276.491 688.225 276.491 697.255H314.395Z" fill="#FF546C"/>
<path d="M711.688 943.982C680.289 889.089 642.424 883.81 627.417 888.033H615.873L706.494 1140.86L831.746 1152.47L890.621 1091.77C889.081 1086.32 875.152 1072.67 831.746 1061.69C777.489 1047.96 750.938 1012.6 711.688 943.982Z" fill="#F44B63"/>
<mask id="mask0" style="mask-type:alpha" maskUnits="userSpaceOnUse" x="615" y="886" width="276" height="267">
<path d="M711.688 943.982C680.289 889.089 642.424 883.81 627.417 888.033H615.873L706.494 1140.86L831.746 1152.47L890.621 1091.77C889.081 1086.32 875.152 1072.67 831.746 1061.69C777.489 1047.96 750.938 1012.6 711.688 943.982Z" fill="#F44B63"/>
</mask>
<g mask="url(#mask0)">
<path d="M747.475 1068.84C794.805 1126.38 818.47 1115.29 821.934 1118.46L779.798 1154.88C763.444 1151.18 730.505 1143.27 729.582 1141.16C728.658 1139.04 659.163 972.076 624.531 888.855L668.398 878.299C685.137 888.152 714.921 910.285 700.144 919.997C681.674 932.137 729.431 1046.91 747.475 1068.84Z" fill="#EA3F57"/>
</g>
<mask id="mask1" style="mask-type:alpha" maskUnits="userSpaceOnUse" x="615" y="886" width="278" height="314">
<path d="M712.448 954.198C680.799 889.481 642.635 883.258 627.509 888.236H615.873L707.212 1186.31L833.457 1200L892.799 1128.44C891.247 1122.01 877.207 1105.91 833.457 1092.97C778.77 1076.79 752.009 1035.09 712.448 954.198Z" fill="#F44B63"/>
</mask>
<g mask="url(#mask1)">
<path d="M674.17 938.471C676.094 929.322 685.253 912.291 706.494 917.358M690.332 985.975C697.258 975.067 715.96 954.305 735.354 958.528M706.494 1026.09C711.496 1010.96 730.043 984.286 764.214 998.643M713.42 1060.93C721.501 1070.78 744.127 1086.47 769.986 1070.43C802.309 1050.37 817.316 1015.53 845.022 1034.53M735.354 1116.88C758.442 1113 805.31 1100.83 808.081 1083.09C810.851 1065.36 846.946 1060.93 864.646 1060.93" stroke="white" stroke-opacity="0.3" stroke-width="2"/>
</g>
<path d="M380.952 577.479C399.423 521.741 524.098 550.032 524.098 577.479C616.45 695.711 584.127 889.951 454.834 927.954C351.4 958.357 311.688 878.69 304.762 835.057C315.536 840.687 345.859 853.214 380.952 858.281C424.82 864.615 434.055 828.723 399.423 771.718C364.791 714.713 357.864 647.152 380.952 577.479Z" fill="#5E1212"/>
<mask id="mask2" style="mask-type:alpha" maskUnits="userSpaceOnUse" x="304" y="545" width="273" height="390">
<path d="M380.952 577.479C399.423 521.741 524.098 550.032 524.098 577.479C616.45 695.711 584.127 889.951 454.834 927.954C351.4 958.357 311.688 878.69 304.762 835.057C315.536 840.687 345.859 853.214 380.952 858.281C424.82 864.615 434.055 828.723 399.423 771.718C364.791 714.713 357.864 647.152 380.952 577.479Z" fill="#5E1212"/>
</mask>
<g mask="url(#mask2)">
<path d="M409.813 877.283C364.214 905.218 324.387 867.078 297.836 846.669L243.579 714.713L378.644 501.472L504.473 534.197V567.978C481.77 569.385 422.506 568.472 409.813 589.091C378.644 639.722 402.886 718.936 429.437 778.052C455.989 837.168 448.474 853.598 409.813 877.283Z" fill="#7E1B1B"/>
</g>
<path d="M313.997 1041.1C326.032 1017.27 400.192 926.74 460.606 881.699C520.443 875.893 642.655 868.715 652.814 886.45C665.512 908.618 746.32 1108.14 746.898 1130.83C747.359 1148.99 735.354 1166.2 738.24 1158.28L629.149 1160.92C546.224 1162.15 408.658 1170.1 353.247 1158.28C283.983 1143.5 294.372 1079.97 313.997 1041.1Z" fill="#FF546C"/>
<mask id="mask3" style="mask-type:alpha" maskUnits="userSpaceOnUse" x="304" y="875" width="443" height="290">
<path d="M313.997 1041.1C319.538 1015.34 400.192 926.74 460.606 881.699C520.442 875.893 642.655 868.715 652.814 886.45C665.512 908.618 746.32 1108.14 746.897 1130.83C747.359 1148.99 735.353 1166.2 738.239 1158.28L629.149 1160.92C546.224 1162.15 408.658 1170.1 353.247 1158.28C283.983 1143.5 307.071 1073.3 313.997 1041.1Z" fill="#FF546C"/>
</mask>
<g mask="url(#mask3)">
<path d="M340.548 1046.19C352.862 1012.41 424.05 931.121 462.915 901.563L422.511 869.893L298.99 963.846L213.564 1153.86L586.436 1199.26L623.376 1147.53C552.573 1145.42 412.352 1134.44 385.57 1132.75C352.092 1130.64 331.313 1071.52 340.548 1046.19Z" fill="#F8435C"/>
</g>
<mask id="mask4" style="mask-type:alpha" maskUnits="userSpaceOnUse" x="299" y="875" width="448" height="290">
<path d="M313.997 1041.1C326.032 1017.27 400.192 926.74 460.606 881.699C520.443 875.893 642.655 868.715 652.814 886.45C665.512 908.618 746.32 1108.14 746.898 1130.83C747.359 1148.99 735.354 1166.2 738.24 1158.28L629.149 1160.92C546.224 1162.15 408.658 1170.1 353.247 1158.28C283.983 1143.5 294.372 1079.97 313.997 1041.1Z" fill="#FF546C"/>
</mask>
<g mask="url(#mask4)">
<path d="M330.159 955.361C362.867 941.638 435.44 922.425 464.069 955.361C499.856 996.531 533.333 1020.81 569.12 991.253C604.906 961.695 639.538 950.083 663.781 978.585C683.175 1001.39 708.802 976.122 719.192 960.639M315.151 997.587C333.237 983.864 378.874 963.384 416.739 991.253C454.603 1019.12 488.696 1028.9 501.01 1030.31L550.649 1037.7C561.039 1034.53 583.665 1026.09 591.053 1017.64C600.289 1007.09 636.075 997.587 663.781 1017.64C685.945 1033.69 719.192 1024.33 733.045 1017.64M398.268 902.579C421.356 900.467 472.15 905.112 490.62 940.582C513.708 984.919 582.973 894.134 627.994 924.747C664.012 949.238 687.638 934.952 694.949 924.747M280.519 1053.54C297.835 1032.07 345.628 998.854 398.268 1037.7M304.762 1133.77C297.066 1113.71 295.758 1076.55 352.092 1088.37C408.427 1100.2 430.976 1059.52 435.209 1037.7M352.092 1160.16C342.088 1149.95 335.469 1128.28 389.033 1123.21C442.597 1118.14 471.38 1059.17 479.076 1030.31M416.739 1160.16C458.682 1142.91 538.413 1094.28 521.789 1037.7M501.01 1160.16C533.718 1142.21 594.286 1092.6 574.892 1037.7M569.12 1160.16C592.122 1139.04 630.327 1086.89 599.134 1047.2M636.075 1064.09C650.697 1056 687.792 1044.67 719.192 1064.09C750.592 1083.52 772.294 1072.19 779.221 1064.09" stroke="white" stroke-opacity="0.5" stroke-width="2"/>
</g>
<path d="M465.801 834.195C478.73 815.193 532.371 820.296 557.576 825.222C608.831 832.401 627.417 834.195 645.31 847.391C657.431 862.698 659.048 872.832 651.66 902.812C642.424 940.288 634.664 964.599 557.576 952.428C477.345 939.76 459.452 905.979 449.062 894.367C443.214 887.831 449.639 857.947 465.801 834.195Z" fill="#EA3F57"/>
<path d="M484.849 847.685C486.234 854.441 508.129 865.983 518.903 870.909L572.583 894.661C589.899 896.421 625.801 898.884 630.88 894.661C637.229 889.383 641.787 878.644 632.035 866.159C617.605 847.685 556.999 836.601 533.333 833.962C512.763 831.668 483.117 839.24 484.849 847.685Z" fill="#D62840"/>
<mask id="mask5" style="mask-type:alpha" maskUnits="userSpaceOnUse" x="446" y="820" width="211" height="136">
<path d="M465.801 834.195C478.73 815.193 532.371 820.296 557.576 825.222C608.831 832.401 627.417 834.195 645.31 847.391C657.431 862.698 659.048 872.832 651.66 902.812C642.424 940.288 634.664 964.599 557.576 952.428C477.345 939.76 459.452 905.979 449.062 894.367C443.214 887.831 449.639 857.947 465.801 834.195Z" fill="#EA3F57"/>
</mask>
<g mask="url(#mask5)">
<path d="M461.761 920.525C461.568 904.514 466.494 869.009 487.735 855.075M481.963 929.498C485.041 912.607 494.315 876.821 506.782 868.798M513.709 945.86C515.055 929.146 520.52 892.761 531.602 880.938M545.455 956.945C548.341 939.878 556.306 903.74 565.079 895.717M583.55 961.695C587.398 948.851 595.325 918.941 596.248 902.051M618.182 961.695C618.759 956.945 634.343 905.746 622.799 895.717M630.303 895.717C633.574 890.087 640.346 876.082 641.27 865.103C642.193 854.124 641.655 837.304 641.27 830.267M638.384 945.86C642.039 931.257 647.157 900.784 638.384 895.717M450.217 902.051C451.371 898.356 453.68 845.046 481.963 837.656C504.589 831.745 514.478 855.954 516.595 868.798M534.488 860.353C536.412 852.963 535.527 835.651 516.595 825.516C497.662 815.382 478.307 814.608 470.996 815.488M549.495 841.879L531.602 812.321M614.719 886.216C619.529 879.354 629.264 864.048 629.726 857.714C630.188 851.38 629.918 826.924 629.726 815.488" stroke="#AC1B2F" stroke-width="2"/>
</g>
<path d="M515.44 864.281C531.777 862.164 554.834 835.779 554.834 809.608C589.945 784.554 654.362 751.596 631.146 820.194C602.126 905.941 641.895 892.179 617.711 901.178C598.364 908.376 550.177 890.062 528.501 880.005C521.694 873.301 499.103 866.398 515.44 864.281Z" fill="#FFC2A0"/>
<mask id="mask6" style="mask-type:alpha" maskUnits="userSpaceOnUse" x="507" y="785" width="128" height="127">
<path d="M513.719 869.326C529.977 867.209 552.922 840.823 552.922 814.652C587.861 789.599 652.252 757.974 629.149 826.572C600.27 912.32 649.751 900.97 625.685 909.968C606.433 917.167 548.287 895.107 526.717 885.05C519.943 878.346 497.462 871.443 513.719 869.326Z" fill="#FFC2A0"/>
</mask>
<g mask="url(#mask6)">
<path d="M611.963 852.981C573.628 866.18 547.752 812.857 547.273 807.577H544.877C577.302 799.13 642.726 782.235 645.026 782.235C647.901 782.235 650.297 839.782 611.963 852.981Z" fill="#F29386"/>
</g>
<path d="M488.312 853.725C503.319 865.689 543.625 889.718 574.892 897.006C604.329 903.868 612.41 903.868 633.189 893.839" stroke="#AC1B2F" stroke-width="5" stroke-linecap="round"/>
<path d="M577.2 826.278C513.643 811.056 492.352 761.355 498.701 674.792C535.642 529.113 646.657 559.199 697.258 597.202C703.222 614.796 716.437 678.124 700.721 739.715C680.519 818.888 625.685 837.89 577.2 826.278Z" fill="#FFC2A0"/>
<mask id="mask7" style="mask-type:alpha" maskUnits="userSpaceOnUse" x="497" y="565" width="212" height="265">
<path d="M577.2 826.278C513.643 811.056 492.352 761.355 498.701 674.792C535.642 529.113 646.657 559.199 697.258 597.202C703.222 614.796 716.437 678.124 700.721 739.715C680.519 818.888 625.685 837.89 577.2 826.278Z" fill="#FFC2A0"/>
</mask>
<g mask="url(#mask7)">
<path d="M555.267 700.95C530.794 722.063 504.858 703.413 495.238 697.783L480.808 654.502L629.726 587.996L727.85 620.193C725.926 623.184 711.919 633.6 671.284 651.335C630.649 669.069 623.954 643.945 625.685 629.166C612.41 644.297 579.74 679.837 555.267 700.95Z" fill="#F29386"/>
</g>
<path d="M637.807 606.175C622.607 624.121 583.434 666.242 548.341 691.155C531.361 703.209 513.607 704.051 498.124 700.056C497.201 743.913 510.053 774.327 516.595 784.052C408.658 792.497 438.095 678.487 439.25 648.929C440.404 619.371 521.789 493.221 640.693 499.027C759.596 504.833 761.328 614.62 753.824 639.956C747.821 660.224 720.539 674.088 707.648 678.487L704.198 628.005C704.141 630.492 695.78 637.824 662.049 648.929C627.417 660.33 631.457 625.177 637.807 606.175Z" fill="#5E1212"/>
<mask id="mask8" style="mask-type:alpha" maskUnits="userSpaceOnUse" x="434" y="498" width="323" height="287">
<path d="M637.807 606.175C622.607 624.121 583.434 666.242 548.341 691.155C531.361 703.209 513.607 704.051 498.124 700.056C497.201 743.913 510.053 774.327 516.595 784.052C408.658 792.497 438.095 678.487 439.25 648.929C440.404 619.371 521.789 493.221 640.693 499.027C759.596 504.833 761.328 614.62 753.824 639.956C747.821 660.224 720.539 674.088 707.648 678.487L704.198 628.005C704.141 630.492 695.78 637.824 662.049 648.929C627.417 660.33 631.457 625.177 637.807 606.175Z" fill="#5E1212"/>
</mask>
<g mask="url(#mask8)">
<path d="M442.136 716.824C439.365 753.139 460.991 776.996 472.15 784.386V823.445L409.812 784.386L384.416 677.765L442.136 520.474L641.847 478.248L713.42 520.474C686.484 515.547 633.766 510.406 600.289 520.474C531.828 541.063 513.708 578.534 489.466 601.759C465.224 624.983 445.599 671.431 442.136 716.824Z" fill="#7E1B1B"/>
</g>
<ellipse cx="655.123" cy="710.156" rx="8.65801" ry="15.3069" fill="black"/>
<ellipse cx="605.483" cy="711.212" rx="9.81241" ry="17.4182" fill="black"/>
<ellipse cx="578.355" cy="743.743" rx="20.7792" ry="11.0843" fill="#F67E6D"/>
<ellipse cx="679.365" cy="743.743" rx="17.8932" ry="11.0843" fill="#F67E6D"/>
<path d="M636.075 728.63C639.346 736.196 648.088 746.136 655.123 750.271C663.203 755.022 651.082 761.883 643.579 764.522" stroke="#E58574" stroke-width="2.5" stroke-linecap="round"/>
<path d="M583.55 677.431C588.552 672.681 603.175 664.13 621.645 667.931M659.163 667.931C667.052 666.699 683.636 666.875 686.869 677.431" stroke="black" stroke-width="5" stroke-linecap="round"/>
<path d="M464.069 699.6C474.69 684.821 494.469 693.09 499.856 703.295C510.823 782.996 513.131 770.856 492.929 759.772C472.904 748.785 450.794 718.074 464.069 699.6Z" fill="#FFC2A0"/>
<path d="M498.124 722.063C491.775 712.034 478.153 695.778 474.459 710.979C472.693 718.245 474.81 725.589 478.454 731.564M478.454 731.564C484.338 741.212 494.203 747.289 498.124 743.704C504.473 737.898 489.375 729.453 478.454 731.564Z" stroke="#E17C6E" stroke-width="3"/>
<path d="M387.302 1038.99C428.09 1032.13 527.446 1024.11 598.557 1046.91" stroke="#AC1B2F" stroke-width="5"/>
<g filter="url(#filter0_i)">
<path d="M745.167 1107.08C710.073 1085.12 644.926 1072.24 622.222 1077.52C620.876 1096.17 624.2 1130.81 638.384 1139.28C666.667 1156.17 726.696 1153 739.395 1149.83C749.553 1147.3 728.62 1122.91 722.656 1116.05C745.167 1122.91 767.1 1147.37 768.255 1146.14C771.525 1142.8 780.26 1129.04 745.167 1107.08Z" fill="#FFC2A0"/>
</g>
<path d="M725.541 1155.11C717.653 1146.31 699.452 1127.56 689.755 1122.91" stroke="#E17C6E" stroke-width="4" stroke-linecap="round"/>
<path d="M589.899 1160.92L595.671 1040.05H661.472L653.968 1160.92H589.899Z" fill="#EA3F57"/>
<mask id="mask9" style="mask-type:alpha" maskUnits="userSpaceOnUse" x="589" y="1040" width="73" height="121">
<path d="M589.899 1160.92L595.671 1040.05H661.472L653.968 1160.92H589.899Z" fill="#EA3F57"/>
</mask>
<g mask="url(#mask9)">
<path d="M625.685 1061.45C600.75 1061.45 598.172 1129.89 596.248 1165.96C589.707 1163.68 575.815 1157.94 572.583 1153.3C569.351 1148.65 558.923 1060.22 554.113 1016.59L667.821 1007.62L692.064 1076.76C683.983 1081.51 650.621 1061.45 625.685 1061.45Z" fill="#D62840"/>
</g>
<mask id="mask10" style="mask-type:alpha" maskUnits="userSpaceOnUse" x="589" y="1040" width="73" height="121">
<path d="M589.899 1160.92L595.671 1040.05H661.472L653.968 1160.92H589.899Z" fill="#EA3F57"/>
</mask>
<g mask="url(#mask10)">
<path d="M588.167 1054.59C608.562 1053.18 652.121 1052.27 663.203 1059.87M583.55 1080.46C602.79 1086.09 646.349 1095.97 666.667 1090.48M583.55 1119.51C604.137 1121.98 648.889 1125.43 663.203 1119.51M576.623 1145.91C580.087 1147.49 660.317 1151.71 671.284 1143.27" stroke="#AC1B2F" stroke-width="2"/>
</g>
<g filter="url(#filter1_i)">
<path d="M849.639 1086.49C803.463 1072.98 787.302 1119.57 784.993 1144.56L877.345 1135.05C887.35 1124.5 895.815 1100.01 849.639 1086.49Z" fill="#FFBF9C"/>
</g>
<ellipse cx="609.921" cy="795.47" rx="13.8528" ry="12.14" fill="#BB2036"/>
<mask id="mask11" style="mask-type:alpha" maskUnits="userSpaceOnUse" x="596" y="783" width="28" height="25">
<ellipse cx="609.921" cy="795.47" rx="13.8528" ry="12.14" fill="#BB2036"/>
</mask>
<g mask="url(#mask11)">
<path d="M636.473 779.107V795.998L612.611 788.685C612.357 788.608 612.098 788.55 611.836 788.514L582.216 784.386V766.44L636.473 779.107Z" fill="#FFFBFB"/>
</g>
<g filter="url(#filter2_i)">
<rect x="668.398" y="1138.22" width="546.032" height="21.1129" rx="10.5565" fill="#357290"/>
</g>
<g filter="url(#filter3_i)">
<path d="M932.254 865.66C933.813 861.946 937.448 859.531 941.475 859.531H1358.46C1365.96 859.531 1370.79 867.469 1367.34 874.125L1218.74 1161.45H808.081L932.254 865.66Z" fill="#7DB5C4"/>
</g>
<mask id="mask12" style="mask-type:alpha" maskUnits="userSpaceOnUse" x="808" y="859" width="561" height="303">
<path d="M932.254 865.66C933.813 861.946 937.448 859.531 941.475 859.531H1358.46C1365.96 859.531 1370.79 867.469 1367.34 874.125L1218.74 1161.45H808.081L932.254 865.66Z" fill="#7DB5C4"/>
</mask>
<g mask="url(#mask12)">
<path d="M1145.17 1056.74L965.079 873.06L1369.12 748.494L1477.63 889.951L1258.3 1185.53L1145.17 1056.74Z" fill="#64A6C0"/>
</g>
<mask id="mask13" style="mask-type:alpha" maskUnits="userSpaceOnUse" x="808" y="859" width="561" height="303">
<path d="M932.254 865.66C933.813 861.946 937.448 859.531 941.475 859.531H1358.46C1365.96 859.531 1370.79 867.469 1367.34 874.125L1218.74 1161.45H808.081L932.254 865.66Z" fill="#7DB5C4"/>
</mask>
<g mask="url(#mask13)">
<path d="M967.388 879.394L831.169 1166.53L774.026 1141.68L812.698 799.165H1445.31V868.838L967.388 879.394Z" fill="#163D56"/>
</g>
<g filter="url(#filter4_d)">
<ellipse cx="1110.53" cy="1011.54" rx="18.4704" ry="16.8904" fill="#133B54"/>
</g>
<rect x="912.374" y="638.667" width="240.115" height="137.234" rx="20" fill="#FED085"/>
<path d="M1109.84 673.658L1096.67 659.761C1096.39 659.462 1096.55 658.994 1096.97 658.902L1116.04 654.715C1116.92 654.521 1117.69 655.298 1117.4 656.086L1110.83 673.484C1110.68 673.869 1110.14 673.965 1109.84 673.658Z" fill="white"/>
<path fill-rule="evenodd" clip-rule="evenodd" d="M1115.23 651.636C1118.77 650.857 1121.86 653.968 1120.67 657.12L1114.1 674.518C1113.08 677.207 1109.27 677.882 1107.23 675.732L1103.23 671.519L1058.84 707.466C1053.42 711.855 1045.34 712.079 1039.64 708L1015.05 690.404C1014.02 689.666 1012.62 689.523 1011.43 690.035L932.545 724.141L929.584 718.414L1008.47 684.309C1012.03 682.773 1016.22 683.202 1019.32 685.416L1043.91 703.011C1046.98 705.208 1051.33 705.087 1054.25 702.724L1098.7 666.733L1094.05 661.835C1092.07 659.742 1093.22 656.469 1096.16 655.822L1115.23 651.636ZM1116.84 657.795L1116.85 657.795L1116.31 655.742L1116.85 657.795C1116.84 657.795 1116.84 657.795 1116.84 657.795ZM1114.12 655.052L1114.12 655.059C1114.12 655.057 1114.12 655.055 1114.12 655.052ZM1112.75 658.694L1102.4 660.967L1109.19 668.128L1112.75 658.694Z" fill="white"/>
<rect x="940.08" y="727.341" width="16.1617" height="31.6694" rx="5" fill="white"/>
<rect x="973.558" y="712.562" width="15.0072" height="46.4485" rx="5" fill="white"/>
<rect x="1005.88" y="702.006" width="16.1617" height="57.005" rx="5" fill="white"/>
<rect x="1039.36" y="721.007" width="15.0071" height="38.0034" rx="5" fill="white"/>
<rect x="1071.68" y="702.006" width="16.1617" height="57.005" rx="5" fill="white"/>
<rect x="1105.16" y="684.06" width="15.007" height="74.9511" rx="5" fill="white"/>
<path fill-rule="evenodd" clip-rule="evenodd" d="M580.508 418.036C625.456 418.036 661.893 384.716 661.893 343.613C661.893 302.511 625.456 269.19 580.508 269.19C535.56 269.19 499.123 302.511 499.123 343.613C499.123 384.716 535.56 418.036 580.508 418.036ZM580.508 433.871C635.019 433.871 679.209 393.461 679.209 343.613C679.209 293.765 635.019 253.355 580.508 253.355C525.997 253.355 481.807 293.765 481.807 343.613C481.807 393.461 525.997 433.871 580.508 433.871Z" fill="#163D56"/>
<path d="M406.996 472.976L506.487 395.776L530.519 404.579C503.932 428.279 445.279 472.308 430.919 483.466C417.267 494.074 401.563 489.825 406.996 472.976Z" fill="#163D56"/>
<rect width="46.1245" height="99.3634" rx="23.0622" transform="matrix(0.994267 0.106929 -0.127557 0.991831 180.46 972.251)" fill="#4A4A4A"/>
<mask id="mask14" style="mask-type:alpha" maskUnits="userSpaceOnUse" x="170" y="974" width="54" height="100">
<rect width="46.1244" height="99.3634" rx="23.0622" transform="matrix(0.994267 0.106929 -0.127557 0.991831 180.46 972.251)" fill="#4A4A4A"/>
</mask>
<g mask="url(#mask14)">
<path d="M223.774 1001.28C196.646 1004.45 173.558 993.365 170.094 990.198C170.094 1016.59 170.556 1070 172.403 1072.54C174.25 1075.07 204.342 1072.54 219.156 1070.95C229.739 1046.67 245.477 998.748 223.774 1001.28Z" fill="#C4C4C4"/>
</g>
<mask id="mask15" style="mask-type:alpha" maskUnits="userSpaceOnUse" x="170" y="990" width="65" height="84">
<path d="M223.774 1001.28C196.646 1004.45 173.558 993.365 170.094 990.198C170.094 1016.59 170.556 1070 172.403 1072.54C174.25 1075.07 204.342 1072.54 219.156 1070.95C229.739 1046.67 245.477 998.748 223.774 1001.28Z" fill="#C4C4C4"/>
</mask>
<g mask="url(#mask15)">
<mask id="mask16" style="mask-type:alpha" maskUnits="userSpaceOnUse" x="170" y="990" width="57" height="84">
<path d="M223.774 1001.28C197.537 994.225 173.558 993.365 170.094 990.198C170.094 1016.59 170.556 1070 172.403 1072.54C174.25 1075.07 204.342 1072.54 219.156 1070.95C210.498 1047.73 233.587 1003.92 223.774 1001.28Z" fill="#C4C4C4"/>
</mask>
<g mask="url(#mask16)">
<rect width="20.7476" height="96.2385" transform="matrix(0.992176 0.124845 -0.148797 0.988868 209.675 988.295)" fill="#929292"/>
</g>
</g>
<rect x="147.006" y="917.358" width="42.7129" height="222.742" fill="#FFBE5F"/>
<mask id="mask17" style="mask-type:alpha" maskUnits="userSpaceOnUse" x="147" y="917" width="43" height="224">
<rect x="147.006" y="917.358" width="42.7129" height="222.742" fill="#FFBE5F"/>
</mask>
<g mask="url(#mask17)">
<path d="M182.216 930.026C180.83 921.158 157.011 919.997 145.275 920.525L143.543 906.801L198.377 908.385L199.532 1098.93L177.598 1106.32C179.714 1051.25 183.601 938.893 182.216 930.026Z" fill="#F5A836"/>
</g>
<path d="M167.786 923.692H189.719V925.803H167.786V923.692Z" fill="#972D00"/>
<path d="M167.786 923.692H189.719V925.803H167.786V923.692Z" fill="#972D00"/>
<path d="M167.786 923.692H189.719V925.803H167.786V923.692Z" fill="#972D00"/>
<path d="M178.175 930.026H189.719V932.137H178.175V930.026Z" fill="#972D00"/>
<path d="M178.175 930.026H189.719V932.137H178.175V930.026Z" fill="#972D00"/>
<path d="M178.175 930.026H189.719V932.137H178.175V930.026Z" fill="#972D00"/>
<path d="M178.175 936.36H189.719V938.471H178.175V936.36Z" fill="#972D00"/>
<path d="M178.175 936.36H189.719V938.471H178.175V936.36Z" fill="#972D00"/>
<path d="M178.175 936.36H189.719V938.471H178.175V936.36Z" fill="#972D00"/>
<path d="M167.786 943.749H189.719V945.86H167.786V943.749Z" fill="#972D00"/>
<path d="M167.786 943.749H189.719V945.86H167.786V943.749Z" fill="#972D00"/>
<path d="M167.786 943.749H189.719V945.86H167.786V943.749Z" fill="#972D00"/>
<path d="M178.175 950.083H189.719V952.194H178.175V950.083Z" fill="#972D00"/>
<path d="M178.175 950.083H189.719V952.194H178.175V950.083Z" fill="#972D00"/>
<path d="M178.175 950.083H189.719V952.194H178.175V950.083Z" fill="#972D00"/>
<path d="M178.175 956.417H189.719V958.528H178.175V956.417Z" fill="#972D00"/>
<path d="M178.175 956.417H189.719V958.528H178.175V956.417Z" fill="#972D00"/>
<path d="M178.175 956.417H189.719V958.528H178.175V956.417Z" fill="#972D00"/>
<path d="M167.786 963.806H189.719V965.918H167.786V963.806Z" fill="#972D00"/>
<path d="M167.786 963.806H189.719V965.918H167.786V963.806Z" fill="#972D00"/>
<path d="M167.786 963.806H189.719V965.918H167.786V963.806Z" fill="#972D00"/>
<path d="M178.175 970.14H189.719V972.252H178.175V970.14Z" fill="#972D00"/>
<path d="M178.175 970.14H189.719V972.252H178.175V970.14Z" fill="#972D00"/>
<path d="M178.175 970.14H189.719V972.252H178.175V970.14Z" fill="#972D00"/>
<path d="M178.175 976.474H189.719V978.585H178.175V976.474Z" fill="#972D00"/>
<path d="M178.175 976.474H189.719V978.585H178.175V976.474Z" fill="#972D00"/>
<path d="M178.175 976.474H189.719V978.585H178.175V976.474Z" fill="#972D00"/>
<path d="M167.786 983.864H189.719V985.975H167.786V983.864Z" fill="#972D00"/>
<path d="M167.786 983.864H189.719V985.975H167.786V983.864Z" fill="#972D00"/>
<path d="M167.786 983.864H189.719V985.975H167.786V983.864Z" fill="#972D00"/>
<path d="M178.175 990.198H189.719V992.309H178.175V990.198Z" fill="#972D00"/>
<path d="M178.175 990.198H189.719V992.309H178.175V990.198Z" fill="#972D00"/>
<path d="M178.175 990.198H189.719V992.309H178.175V990.198Z" fill="#972D00"/>
<path d="M178.175 996.531H189.719V998.643H178.175V996.531Z" fill="#972D00"/>
<path d="M178.175 996.531H189.719V998.643H178.175V996.531Z" fill="#972D00"/>
<path d="M178.175 996.531H189.719V998.643H178.175V996.531Z" fill="#972D00"/>
<path d="M167.786 1003.92H189.719V1006.03H167.786V1003.92Z" fill="#972D00"/>
<path d="M167.786 1003.92H189.719V1006.03H167.786V1003.92Z" fill="#972D00"/>
<path d="M167.786 1003.92H189.719V1006.03H167.786V1003.92Z" fill="#972D00"/>
<path d="M178.175 1010.25H189.719V1012.37H178.175V1010.25Z" fill="#972D00"/>
<path d="M178.175 1010.25H189.719V1012.37H178.175V1010.25Z" fill="#972D00"/>
<path d="M178.175 1010.25H189.719V1012.37H178.175V1010.25Z" fill="#972D00"/>
<path d="M178.175 1016.59H189.719V1018.7H178.175V1016.59Z" fill="#972D00"/>
<path d="M178.175 1016.59H189.719V1018.7H178.175V1016.59Z" fill="#972D00"/>
<path d="M178.175 1016.59H189.719V1018.7H178.175V1016.59Z" fill="#972D00"/>
<path d="M167.786 1023.98H189.719V1026.09H167.786V1023.98Z" fill="#972D00"/>
<path d="M167.786 1023.98H189.719V1026.09H167.786V1023.98Z" fill="#972D00"/>
<path d="M167.786 1023.98H189.719V1026.09H167.786V1023.98Z" fill="#972D00"/>
<path d="M178.175 1030.31H189.719V1032.42H178.175V1030.31Z" fill="#972D00"/>
<path d="M178.175 1030.31H189.719V1032.42H178.175V1030.31Z" fill="#972D00"/>
<path d="M178.175 1030.31H189.719V1032.42H178.175V1030.31Z" fill="#972D00"/>
<path d="M178.175 1036.65H189.719V1038.76H178.175V1036.65Z" fill="#972D00"/>
<path d="M178.175 1036.65H189.719V1038.76H178.175V1036.65Z" fill="#972D00"/>
<path d="M178.175 1036.65H189.719V1038.76H178.175V1036.65Z" fill="#972D00"/>
<rect width="11.5348" height="185.971" transform="matrix(0.995926 0.0901713 -0.107643 0.99419 223.59 951.139)" fill="#EE6754"/>
<ellipse rx="5.76841" ry="2.11291" transform="matrix(0.996804 0.0798868 -0.0953986 0.995439 229.148 951.591)" fill="#B33C2C"/>
<rect width="11.3567" height="192.535" transform="matrix(0.963841 -0.295293 0.335232 0.914999 122.347 978.488)" fill="#FF546C"/>
<ellipse rx="5.6849" ry="2.18515" transform="matrix(0.959033 -0.304854 0.346926 0.912623 127.62 976.82)" fill="#C8374B"/>
<path d="M121.609 1032.42H243.976L220.16 1163.32H146.247L121.609 1032.42Z" fill="#7DB5C4"/>
<mask id="mask18" style="mask-type:alpha" maskUnits="userSpaceOnUse" x="121" y="1032" width="123" height="132">
<path d="M121.609 1032.42H243.976L220.16 1163.32H146.247L121.609 1032.42Z" fill="#7DB5C4"/>
</mask>
<g mask="url(#mask18)">
<path d="M193.88 1193.59L223.445 1021.79L290.787 1025.88L255.474 1183.78L193.88 1193.59Z" fill="#64A6C0"/>
</g>
<mask id="mask19" style="mask-type:alpha" maskUnits="userSpaceOnUse" x="121" y="1032" width="123" height="132">
<path d="M121.609 1032.42H243.976L220.16 1163.32H146.247L121.609 1032.42Z" fill="#7DB5C4"/>
</mask>
<g mask="url(#mask19)">
<path fill-rule="evenodd" clip-rule="evenodd" d="M262.044 1075.15H109.291V1069.87H262.044V1075.15ZM262.044 1097.24H117.503V1091.96H262.044V1097.24Z" fill="white"/>
</g>
<path fill-rule="evenodd" clip-rule="evenodd" d="M63.8896 1163.03C63.8896 1161.57 65.1817 1160.39 66.7756 1160.39H1423.2C1424.79 1160.39 1426.08 1161.57 1426.08 1163.03C1426.08 1164.49 1424.79 1165.67 1423.2 1165.67H66.7756C65.1817 1165.67 63.8896 1164.49 63.8896 1163.03Z" fill="#0E374B"/>
<path fill-rule="evenodd" clip-rule="evenodd" d="M1155.24 107.695C1148.58 105.651 1141.66 104.271 1134.51 103.624L1135.41 95.2199C1143.28 95.9309 1150.87 97.4466 1158.18 99.6878L1155.24 107.695ZM1113.24 103.842C1109.78 104.215 1106.25 104.755 1102.68 105.468C1100.19 105.965 1097.73 104.521 1097.18 102.242C1096.64 99.9638 1098.22 97.7137 1100.71 97.2166C1104.57 96.4462 1108.39 95.8609 1112.16 95.4548L1113.24 103.842ZM1191.97 127.302C1186.44 122.93 1180.64 119.084 1174.59 115.822L1179.29 108.549C1185.84 112.086 1192.09 116.233 1198.01 120.911L1191.97 127.302ZM1220.29 157.157C1216.17 151.518 1211.81 146.222 1207.19 141.319L1214.2 135.812C1219.07 140.994 1223.66 146.567 1227.97 152.472L1220.29 157.157ZM1240.71 192.409C1237.85 186.153 1234.75 180.103 1231.4 174.303L1239.57 170.365C1243.05 176.399 1246.27 182.677 1249.23 189.154L1240.71 192.409ZM1254.37 230.516C1252.6 223.962 1250.58 217.517 1248.34 211.22L1257.11 208.598C1259.44 215.098 1261.51 221.742 1263.33 228.493L1254.37 230.516ZM1261.88 270.093C1261.12 263.41 1260.12 256.761 1258.87 250.18L1267.97 248.738C1269.25 255.51 1270.29 262.351 1271.06 269.226L1261.88 270.093ZM1263.33 310.225C1263.61 303.557 1263.62 296.85 1263.38 290.14L1272.61 289.857C1272.86 296.765 1272.85 303.673 1272.56 310.547L1263.33 310.225ZM1258.3 350.037C1259.71 343.538 1260.83 336.924 1261.67 330.232L1270.85 331.193C1269.98 338.107 1268.82 344.951 1267.35 351.686L1258.3 350.037ZM1249.72 378.941C1250.92 375.821 1252.03 372.655 1253.07 369.449L1261.93 371.846C1260.85 375.183 1259.68 378.482 1258.43 381.737C1257.15 385.092 1255.84 388.279 1254.51 391.303L1245.94 388.162C1247.21 385.258 1248.47 382.187 1249.72 378.941ZM1190.49 378.815C1182.75 379.346 1178.13 382.101 1175.45 385.654L1167.84 380.861C1172.34 374.891 1179.72 371.085 1189.8 370.393L1190.49 378.815ZM1220.08 384.276C1216.59 383.036 1213.31 382.026 1210.25 381.225L1212.8 373.106C1216.15 373.985 1219.69 375.079 1223.42 376.402C1227.18 377.733 1230.8 379.301 1234.27 381.088L1229.75 388.451C1226.65 386.856 1223.42 385.46 1220.08 384.276ZM1260.78 415.496C1256.57 409.817 1251.95 404.706 1246.9 400.242L1253.33 394.176C1258.87 399.083 1263.9 404.649 1268.43 410.76L1260.78 415.496ZM1172.36 401.642C1173.21 407.29 1175.62 413.186 1179.19 418.315L1171.41 422.855C1167.16 416.759 1164.25 409.717 1163.21 402.798L1172.36 401.642ZM1225.45 420.985C1229.27 417.069 1233.17 412 1237.05 405.562L1245.14 409.64C1240.99 416.516 1236.71 422.128 1232.35 426.605L1225.45 420.985ZM1279.52 451.798C1277.2 445.189 1274.53 438.888 1271.52 432.962L1279.89 429.397C1283.08 435.67 1285.89 442.304 1288.31 449.224L1279.52 451.798ZM1192.86 430.233C1198.1 432.642 1203.92 433.283 1210.12 431.259L1213.22 439.212C1204.43 442.084 1195.99 441.125 1188.71 437.779L1192.86 430.233ZM1288.72 491.562C1287.83 484.706 1286.65 477.996 1285.16 471.484L1294.2 469.756C1295.75 476.525 1296.98 483.482 1297.89 490.576L1288.72 491.562ZM1290.41 532.362C1290.69 525.502 1290.7 518.679 1290.42 511.94L1299.65 511.628C1299.93 518.581 1299.93 525.614 1299.63 532.681L1290.41 532.362ZM1285.48 572.986C1286.84 566.283 1287.93 559.528 1288.75 552.763L1297.93 553.695C1297.08 560.661 1295.96 567.619 1294.56 574.527L1285.48 572.986ZM1274 612.429C1276.47 606.053 1278.66 599.536 1280.58 592.919L1289.51 595.084C1287.52 601.913 1285.26 608.65 1282.7 615.248L1274 612.429ZM1255.42 649.364C1259.12 643.579 1262.53 637.547 1265.65 631.313L1274.05 634.829C1270.81 641.305 1267.25 647.589 1263.39 653.63L1255.42 649.364ZM1228.82 681.582C1233.92 676.826 1238.71 671.697 1243.18 666.244L1250.57 671.313C1245.86 677.045 1240.81 682.458 1235.41 687.494L1228.82 681.582ZM1193.82 705.558C1200.31 702.466 1206.48 698.882 1212.33 694.857L1217.88 701.604C1211.65 705.898 1205.05 709.734 1198.08 713.049L1193.82 705.558ZM1163.03 715.831C1166.64 715.091 1170.17 714.218 1173.63 713.218L1176.42 721.27C1172.71 722.343 1168.92 723.279 1165.04 724.072L1163.03 715.831Z" fill="#FFBA55"/>
<defs>
<filter id="filter0_i" x="621.947" y="1076.34" width="154.703" height="82.009" filterUnits="userSpaceOnUse" color-interpolation-filters="sRGB">
<feFlood flood-opacity="0" result="BackgroundImageFix"/>
<feBlend mode="normal" in="SourceGraphic" in2="BackgroundImageFix" result="shape"/>
<feColorMatrix in="SourceAlpha" type="matrix" values="0 0 0 0 0 0 0 0 0 0 0 0 0 0 0 0 0 0 127 0" result="hardAlpha"/>
<feOffset dx="5" dy="6"/>
<feGaussianBlur stdDeviation="5"/>
<feComposite in2="hardAlpha" operator="arithmetic" k2="-1" k3="1"/>
<feColorMatrix type="matrix" values="0 0 0 0 0.956863 0 0 0 0 0.54902 0 0 0 0 0.419608 0 0 0 0.5 0"/>
<feBlend mode="normal" in2="shape" result="effect1_innerShadow"/>
</filter>
<filter id="filter1_i" x="784.993" y="1084.08" width="100.223" height="69.4708" filterUnits="userSpaceOnUse" color-interpolation-filters="sRGB">
<feFlood flood-opacity="0" result="BackgroundImageFix"/>
<feBlend mode="normal" in="SourceGraphic" in2="BackgroundImageFix" result="shape"/>
<feColorMatrix in="SourceAlpha" type="matrix" values="0 0 0 0 0 0 0 0 0 0 0 0 0 0 0 0 0 0 127 0" result="hardAlpha"/>
<feOffset dy="9"/>
<feGaussianBlur stdDeviation="5"/>
<feComposite in2="hardAlpha" operator="arithmetic" k2="-1" k3="1"/>
<feColorMatrix type="matrix" values="0 0 0 0 0.956863 0 0 0 0 0.54902 0 0 0 0 0.419608 0 0 0 0.5 0"/>
<feBlend mode="normal" in2="shape" result="effect1_innerShadow"/>
</filter>
<filter id="filter2_i" x="668.398" y="1138.22" width="546.032" height="25.1129" filterUnits="userSpaceOnUse" color-interpolation-filters="sRGB">
<feFlood flood-opacity="0" result="BackgroundImageFix"/>
<feBlend mode="normal" in="SourceGraphic" in2="BackgroundImageFix" result="shape"/>
<feColorMatrix in="SourceAlpha" type="matrix" values="0 0 0 0 0 0 0 0 0 0 0 0 0 0 0 0 0 0 127 0" result="hardAlpha"/>
<feOffset dy="4"/>
<feGaussianBlur stdDeviation="5"/>
<feComposite in2="hardAlpha" operator="arithmetic" k2="-1" k3="1"/>
<feColorMatrix type="matrix" values="0 0 0 0 0 0 0 0 0 0 0 0 0 0 0 0 0 0 0.1 0"/>
<feBlend mode="normal" in2="shape" result="effect1_innerShadow"/>
</filter>
<filter id="filter3_i" x="808.081" y="859.531" width="560.394" height="305.915" filterUnits="userSpaceOnUse" color-interpolation-filters="sRGB">
<feFlood flood-opacity="0" result="BackgroundImageFix"/>
<feBlend mode="normal" in="SourceGraphic" in2="BackgroundImageFix" result="shape"/>
<feColorMatrix in="SourceAlpha" type="matrix" values="0 0 0 0 0 0 0 0 0 0 0 0 0 0 0 0 0 0 127 0" result="hardAlpha"/>
<feOffset dy="4"/>
<feGaussianBlur stdDeviation="25"/>
<feComposite in2="hardAlpha" operator="arithmetic" k2="-1" k3="1"/>
<feColorMatrix type="matrix" values="0 0 0 0 0 0 0 0 0 0 0 0 0 0 0 0 0 0 0.05 0"/>
<feBlend mode="normal" in2="shape" result="effect1_innerShadow"/>
</filter>
<filter id="filter4_d" x="1086.06" y="994.654" width="44.9409" height="41.7807" filterUnits="userSpaceOnUse" color-interpolation-filters="sRGB">
<feFlood flood-opacity="0" result="BackgroundImageFix"/>
<feColorMatrix in="SourceAlpha" type="matrix" values="0 0 0 0 0 0 0 0 0 0 0 0 0 0 0 0 0 0 127 0" result="hardAlpha"/>
<feOffset dx="-2" dy="4"/>
<feGaussianBlur stdDeviation="2"/>
<feColorMatrix type="matrix" values="0 0 0 0 0 0 0 0 0 0 0 0 0 0 0 0 0 0 0.04 0"/>
<feBlend mode="normal" in2="BackgroundImageFix" result="effect1_dropShadow"/>
<feBlend mode="normal" in="SourceGraphic" in2="effect1_dropShadow" result="shape"/>
</filter>
</defs>
</svg>
